<svg width="168" height="64" viewBox="0 0 168 64" fill="none" xmlns="http://www.w3.org/2000/svg">
<rect width="168" height="64" rx="32" fill="#1C1415"/>
<path d="M51.056 35.248C51.056 36.096 50.824 36.896 50.36 37.648C49.912 38.4 49.248 39.008 48.368 39.472C47.488 39.936 46.456 40.168 45.272 40.168C43.56 40.168 42.16 39.76 41.072 38.944C39.984 38.128 39.44 37 39.44 35.56H42.368C42.432 36.296 42.704 36.88 43.184 37.312C43.664 37.744 44.36 37.96 45.272 37.96C46.216 37.96 46.952 37.72 47.48 37.24C48.024 36.76 48.296 36.144 48.296 35.392C48.296 34.8 48.128 34.336 47.792 34C47.472 33.648 47.064 33.384 46.568 33.208C46.072 33.016 45.392 32.816 44.528 32.608C43.44 32.352 42.56 32.088 41.888 31.816C41.216 31.528 40.64 31.08 40.16 30.472C39.68 29.848 39.44 29.008 39.44 27.952C39.44 26.992 39.68 26.144 40.16 25.408C40.64 24.672 41.312 24.104 42.176 23.704C43.04 23.304 44.032 23.104 45.152 23.104C46.784 23.104 48.096 23.488 49.088 24.256C50.096 25.024 50.656 26.136 50.768 27.592H47.744C47.68 26.952 47.408 26.416 46.928 25.984C46.448 25.552 45.808 25.336 45.008 25.336C44.176 25.336 43.504 25.544 42.992 25.96C42.48 26.376 42.224 26.992 42.224 27.808C42.224 28.4 42.384 28.88 42.704 29.248C43.04 29.6 43.456 29.872 43.952 30.064C44.448 30.24 45.136 30.432 46.016 30.64C47.088 30.896 47.96 31.168 48.632 31.456C49.304 31.728 49.872 32.168 50.336 32.776C50.816 33.368 51.056 34.192 51.056 35.248ZM53.9244 23.272C53.9244 22.776 54.0924 22.36 54.4284 22.024C54.7644 21.688 55.1804 21.52 55.6764 21.52C56.1564 21.52 56.5644 21.688 56.9004 22.024C57.2364 22.36 57.4044 22.776 57.4044 23.272C57.4044 23.768 57.2364 24.184 56.9004 24.52C56.5644 24.856 56.1564 25.024 55.6764 25.024C55.1804 25.024 54.7644 24.856 54.4284 24.52C54.0924 24.184 53.9244 23.768 53.9244 23.272ZM57.0204 26.776V40H54.2844V26.776H57.0204ZM65.9405 26.56C66.9805 26.56 67.8925 26.8 68.6765 27.28C69.4765 27.744 70.0925 28.36 70.5245 29.128V26.776H73.2845V40.216C73.2845 41.432 73.0285 42.512 72.5165 43.456C72.0045 44.416 71.2605 45.168 70.2845 45.712C69.3245 46.256 68.1725 46.528 66.8285 46.528C65.0365 46.528 63.5485 46.104 62.3645 45.256C61.1805 44.424 60.5085 43.288 60.3485 41.848H63.0605C63.2685 42.536 63.7085 43.088 64.3805 43.504C65.0685 43.936 65.8845 44.152 66.8285 44.152C67.9325 44.152 68.8205 43.816 69.4925 43.144C70.1805 42.472 70.5245 41.496 70.5245 40.216V37.528C70.0765 38.344 69.4605 39 68.6765 39.496C67.8925 39.976 66.9805 40.216 65.9405 40.216C64.7885 40.216 63.7325 39.928 62.7725 39.352C61.8285 38.76 61.0765 37.944 60.5165 36.904C59.9725 35.848 59.7005 34.656 59.7005 33.328C59.7005 32 59.9725 30.824 60.5165 29.8C61.0765 28.776 61.8285 27.984 62.7725 27.424C63.7325 26.848 64.7885 26.56 65.9405 26.56ZM66.5165 28.936C65.8125 28.936 65.1565 29.112 64.5485 29.464C63.9405 29.8 63.4445 30.304 63.0605 30.976C62.6925 31.632 62.5085 32.416 62.5085 33.328C62.5085 34.24 62.6925 35.04 63.0605 35.728C63.4445 36.416 63.9405 36.944 64.5485 37.312C65.1725 37.664 65.8285 37.84 66.5165 37.84C67.2205 37.84 67.8765 37.664 68.4845 37.312C69.0925 36.96 69.5805 36.448 69.9485 35.776C70.3325 35.088 70.5245 34.288 70.5245 33.376C70.5245 32.464 70.3325 31.672 69.9485 31C69.5805 30.328 69.0925 29.816 68.4845 29.464C67.8765 29.112 67.2205 28.936 66.5165 28.936ZM83.8381 26.56C84.7981 26.56 85.6621 26.776 86.4301 27.208C87.2141 27.64 87.8301 28.28 88.2781 29.128C88.7421 29.976 88.9741 31 88.9741 32.2V40H86.2621V32.608C86.2621 31.424 85.9661 30.52 85.3741 29.896C84.7821 29.256 83.9741 28.936 82.9501 28.936C81.9261 28.936 81.1101 29.256 80.5021 29.896C79.9101 30.52 79.6141 31.424 79.6141 32.608V40H76.8781V26.776H79.6141V28.864C80.0461 28.112 80.6221 27.544 81.3421 27.16C82.0781 26.76 82.9101 26.56 83.8381 26.56ZM111.635 26.776V40H108.899V37.912C108.467 38.664 107.883 39.232 107.147 39.616C106.427 40 105.603 40.192 104.675 40.192C103.715 40.192 102.843 39.976 102.059 39.544C101.291 39.112 100.675 38.48 100.211 37.648C99.7634 36.8 99.5394 35.776 99.5394 34.576V26.776H102.251V34.168C102.251 35.352 102.547 36.264 103.139 36.904C103.731 37.528 104.539 37.84 105.563 37.84C106.587 37.84 107.395 37.528 107.987 36.904C108.595 36.264 108.899 35.352 108.899 34.168V26.776H111.635ZM122.589 26.56C123.741 26.56 124.789 26.848 125.733 27.424C126.693 27.984 127.445 28.776 127.989 29.8C128.533 30.824 128.805 32 128.805 33.328C128.805 34.656 128.533 35.848 127.989 36.904C127.445 37.944 126.693 38.76 125.733 39.352C124.789 39.928 123.741 40.216 122.589 40.216C121.549 40.216 120.637 39.976 119.853 39.496C119.069 39 118.445 38.344 117.981 37.528V46.288H115.245V26.776H117.981V29.128C118.429 28.36 119.045 27.744 119.829 27.28C120.629 26.8 121.549 26.56 122.589 26.56ZM121.989 28.936C121.301 28.936 120.645 29.112 120.021 29.464C119.413 29.816 118.917 30.328 118.533 31C118.165 31.672 117.981 32.464 117.981 33.376C117.981 34.288 118.165 35.088 118.533 35.776C118.917 36.448 119.413 36.96 120.021 37.312C120.645 37.664 121.301 37.84 121.989 37.84C122.693 37.84 123.349 37.664 123.957 37.312C124.581 36.944 125.077 36.416 125.445 35.728C125.829 35.04 126.021 34.24 126.021 33.328C126.021 32.416 125.829 31.632 125.445 30.976C125.077 30.304 124.581 29.8 123.957 29.464C123.349 29.112 122.693 28.936 121.989 28.936Z" fill="white"/>
</svg>
